<svg height="512pt" viewBox="-53 0 512 512" width="512pt" xmlns="http://www.w3.org/2000/svg"><path d="m248 24.792969h-90.132812c-8.28125 0-15 6.714843-15 15v106c0 8.28125 6.71875 15 15 15h90.132812c8.285156 0 15-6.71875 15-15v-106c0-8.285157-6.714844-15-15-15zm0 0" fill="#393939"/><path d="m248 24.792969h-45.066406v136h45.066406c8.285156 0 15-6.71875 15-15v-106c0-8.285157-6.714844-15-15-15zm0 0" fill="#303030"/><path d="m400.6875 154.421875-42.425781-42.425781c-5.855469-5.859375-15.355469-5.859375-21.210938 0l-72.753906 72.75c-5.855469 5.855468-5.855469 15.355468 0 21.214844l42.429687 42.425781c2.925782 2.929687 6.765626 4.394531 10.605469 4.394531 3.835938 0 7.675781-1.464844 10.605469-4.394531l72.75-72.75c5.859375-5.859375 5.859375-15.359375 0-21.214844zm0 0" fill="#303030"/><path d="m202.933594 106.132812c-111.898438 0-202.933594 91.035157-202.933594 202.933594 0 111.898438 91.035156 202.933594 202.933594 202.933594 111.898437 0 202.9375-91.035156 202.9375-202.933594 0-111.902344-91.039063-202.933594-202.9375-202.933594zm0 0" fill="#7CA725"/><path d="m202.933594 106.132812c-.019532 0-.042969 0-.0625 0v405.867188h.0625c111.898437 0 202.9375-91.035156 202.9375-202.933594 0-111.902344-91.039063-202.933594-202.9375-202.933594zm0 0" fill="#7CA745"/><path d="m285 0h-164.128906c-8.285156 0-15 6.714844-15 15v60c0 8.285156 6.714844 15 15 15h164.128906c8.285156 0 15-6.714844 15-15v-60c0-8.285156-6.714844-15-15-15zm0 0" fill="#35404e"/><path d="m274.230469 242.925781c-4.558594-5.03125-11.929688-6.371093-17.96875-3.265625-8.457031 4.347656-19.371094 8.960938-29.921875 13.425782-20.890625 8.832031-40.617188 17.175781-51.320313 26.878906-7.925781 7.191406-12.578125 17.035156-13.101562 27.726562-.523438 10.6875 3.148437 20.941406 10.335937 28.867188 7.898438 8.710937 18.777344 13.136718 29.699219 13.136718 9.605469 0 19.238281-3.425781 26.894531-10.367187 7.609375-6.898437 15.714844-21.6875 28.3125-45.238281 6.414063-11.992188 13.042969-24.390625 18.566406-32.964844 3.679688-5.707031 3.0625-13.171875-1.496093-18.199219zm0 0" fill="#0040a0"/><path d="m256.261719 239.660156c-8.457031 4.347656-19.371094 8.960938-29.921875 13.425782-8.160156 3.449218-16.132813 6.824218-23.472656 10.238281v86.347656c9.296874-.207031 18.566406-3.621094 25.980468-10.34375v-.003906c7.605469-6.894531 15.714844-21.683594 28.3125-45.234375 6.410156-11.992188 13.042969-24.390625 18.566406-32.964844 3.679688-5.707031 3.0625-13.171875-1.496093-18.199219-4.558594-5.03125-11.929688-6.371093-17.96875-3.265625zm0 0" fill="#251547"/><path d="m202.933594 106.132812c-5.066406 0-10.089844.191407-15.0625.558594v54.308594c0 8.285156 6.714844 15 15 15 8.28125 0 15-6.714844 15-15v-54.316406c-4.933594-.363282-9.914063-.550782-14.9375-.550782zm0 0" fill="#0040a0"/><path d="m356.242188 176.242188c-6.363282-7.335938-13.246094-14.214844-20.585938-20.574219-1.007812.613281-1.96875 1.339843-2.839844 2.210937l-35.835937 35.835938c-5.859375 5.855468-5.859375 15.355468 0 21.214844 2.929687 2.925781 6.765625 4.390624 10.605469 4.390624 3.839843 0 7.679687-1.464843 10.605468-4.390624l35.835938-35.835938c.875-.875 1.601562-1.835938 2.214844-2.851562zm0 0" fill="#251547"/><path d="m336 309c0 8.285156 6.714844 15 15 15h54.316406c.363282-4.933594.550782-9.910156.550782-14.933594 0-5.070312-.191407-10.089844-.558594-15.066406h-54.308594c-8.285156 0-15 6.714844-15 15zm0 0" fill="#251547"/><path d="m356.621094 441.445312-38.335938-38.332031c-5.855468-5.859375-15.351562-5.859375-21.210937 0-5.859375 5.855469-5.859375 15.355469 0 21.210938l38.339843 38.34375c7.578126-6.546875 14.667969-13.640625 21.207032-21.222657zm0 0" fill="#251547"/><g fill="#0040a0"><path d="m203 442.132812c-8.285156 0-15 6.714844-15 15v54.316407c4.933594.359375 9.910156.550781 14.933594.550781 5.070312 0 10.089844-.191406 15.066406-.558594v-54.308594c0-8.285156-6.714844-15-15-15zm0 0"/><path d="m87.675781 403.203125-38.339843 38.34375c6.542968 7.578125 13.636718 14.667969 21.21875 21.207031l38.335937-38.335937c5.855469-5.859375 5.855469-15.355469 0-21.214844-5.859375-5.855469-15.355469-5.855469-21.214844 0zm0 0"/><path d="m54.871094 294.132812h-54.320313c-.359375 4.929688-.550781 9.910157-.550781 14.933594 0 5.066406.191406 10.089844.558594 15.066406h54.3125c8.28125 0 15-6.71875 15-15 0-8.285156-6.71875-15-15-15zm0 0"/><path d="m49.25 176.683594 38.332031 38.335937c2.929688 2.929688 6.769531 4.394531 10.605469 4.394531 3.839844 0 7.679688-1.464843 10.609375-4.394531 5.855469-5.855469 5.855469-15.355469 0-21.210937l-38.34375-38.34375c-7.574219 6.542968-14.664063 13.640625-21.203125 21.21875zm0 0"/></g><path d="m202.933594 106.132812v69.863282c8.253906-.035156 14.9375-6.734375 14.9375-14.996094v-54.316406c-4.933594-.363282-9.914063-.550782-14.9375-.550782zm0 0" fill="#251547"/><path d="m203 442.132812c-.023438 0-.042969.003907-.066406.003907v69.863281c5.070312 0 10.089844-.191406 15.066406-.558594v-54.308594c0-8.285156-6.714844-15-15-15zm0 0" fill="#251547"/><path d="m285 0h-82.066406v90h82.066406c8.285156 0 15-6.714844 15-15v-60c0-8.285156-6.714844-15-15-15zm0 0" fill="#333"/></svg>